# xmcd CD database file
#
# Track frame offsets:
#	150
#	18472
#	38430
#	56547
#	77858
#	98732
#	126655
#	147299
#	167150
#	186602
#	209126
#	226904
#	245701
#	270240
#	289988
#	320625
#
# Disc length: 4715 seconds
#
# Revision: 26
# Processed by: cddbd v1.5.2PL0 Copyright (c) Steve Scherf et al.
# Submitted via: CDex 1.70beta2
#
DISCID=f4126910
DTITLE=Nightwish - Highest Hopes - The Best Of Nightwish
DYEAR=2006
DGENRE=Melodic Power Metal
TTITLE0=Wish I Had An Angel
TTITLE1=Stargazers
TTITLE2=The Kinslayer
TTITLE3=Ever Dream
TTITLE4=Elvenpath
TTITLE5=Bless The Child
TTITLE6=Nemo
TTITLE7=Sleeping Sun (2005 Version)
TTITLE8=Dead To The World
TTITLE9=Over The Hills And Far Away
TTITLE10=Deep Silent Complete
TTITLE11=Sacrament Of Wilderness
TTITLE12=Walking In The Air
TTITLE13=Wishmaster
TTITLE14=Dead Boy's Poem
TTITLE15=High Hopes
EXTD=YEAR: 2006
EXTT0=
EXTT1=
EXTT2=
EXTT3=
EXTT4=
EXTT5=
EXTT6=
EXTT7=
EXTT8=
EXTT9=
EXTT10=
EXTT11=
EXTT12=
EXTT13=
EXTT14=
EXTT15=
PLAYORDER=
